<?xml version="1.0" encoding="UTF-8" standalone="no"?>
<!-- Created with Inkscape (http://www.inkscape.org/) -->
<svg
   xmlns:dc="http://purl.org/dc/elements/1.1/"
   xmlns:cc="http://creativecommons.org/ns#"
   xmlns:rdf="http://www.w3.org/1999/02/22-rdf-syntax-ns#"
   xmlns:svg="http://www.w3.org/2000/svg"
   xmlns="http://www.w3.org/2000/svg"
   xmlns:xlink="http://www.w3.org/1999/xlink"
   xmlns:sodipodi="http://sodipodi.sourceforge.net/DTD/sodipodi-0.dtd"
   xmlns:inkscape="http://www.inkscape.org/namespaces/inkscape"
   width="744.09448819"
   height="1052.3622047"
   id="svg2"
   sodipodi:version="0.32"
   inkscape:version="0.46"
   sodipodi:docname="logo_ideas.svg"
   inkscape:output_extension="org.inkscape.output.svg.inkscape">
  <defs
     id="defs4">
    <inkscape:perspective
       sodipodi:type="inkscape:persp3d"
       inkscape:vp_x="0 : 526.18109 : 1"
       inkscape:vp_y="0 : 1000 : 0"
       inkscape:vp_z="744.09448 : 526.18109 : 1"
       inkscape:persp3d-origin="372.04724 : 350.78739 : 1"
       id="perspective10" />
    <inkscape:perspective
       id="perspective2390"
       inkscape:persp3d-origin="372.04724 : 350.78739 : 1"
       inkscape:vp_z="744.09448 : 526.18109 : 1"
       inkscape:vp_y="0 : 1000 : 0"
       inkscape:vp_x="0 : 526.18109 : 1"
       sodipodi:type="inkscape:persp3d" />
    <inkscape:perspective
       id="perspective3261"
       inkscape:persp3d-origin="372.04724 : 350.78739 : 1"
       inkscape:vp_z="744.09448 : 526.18109 : 1"
       inkscape:vp_y="0 : 1000 : 0"
       inkscape:vp_x="0 : 526.18109 : 1"
       sodipodi:type="inkscape:persp3d" />
  </defs>
  <sodipodi:namedview
     id="base"
     pagecolor="#ffffff"
     bordercolor="#666666"
     borderopacity="1.0"
     gridtolerance="10000"
     guidetolerance="10"
     objecttolerance="10"
     inkscape:pageopacity="0.0"
     inkscape:pageshadow="2"
     inkscape:zoom="0.9899495"
     inkscape:cx="382.92833"
     inkscape:cy="482.10302"
     inkscape:document-units="px"
     inkscape:current-layer="layer2"
     showgrid="false"
     inkscape:snap-global="false"
     inkscape:window-width="949"
     inkscape:window-height="684"
     inkscape:window-x="1280"
     inkscape:window-y="167" />
  <metadata
     id="metadata7">
    <rdf:RDF>
      <cc:Work
         rdf:about="">
        <dc:format>image/svg+xml</dc:format>
        <dc:type
           rdf:resource="http://purl.org/dc/dcmitype/StillImage" />
      </cc:Work>
    </rdf:RDF>
  </metadata>
  <g
     inkscape:label="Layer 1"
     inkscape:groupmode="layer"
     id="layer1"
     sodipodi:insensitive="true"
     style="display:none">
    <image
       y="116.00504"
       x="23.57143"
       id="image2392"
       height="461.28571"
       width="676.15167"
       sodipodi:absref="/home/alan/mailfort/pastedpic_07222008_101014.png"
       xlink:href="/home/alan/mailfort/pastedpic_07222008_101014.png" />
  </g>
  <g
     inkscape:groupmode="layer"
     id="layer2"
     inkscape:label="draw"
     style="display:inline">
    <g
       id="g3199"
       style="fill:#d45500;stroke:#d45500"
       transform="matrix(0.464739,0,0,0.4878929,169.50636,-42.156552)">
      <path
         id="path3197"
         d="M 392.44426,366.4686 L 400.52548,374.04475 L 436.89098,389.19704 L 448.50773,390.71227 L 495.47982,393.23765 L 560.12959,321.01174 L 366.68537,282.12087 L 392.44426,366.4686 z"
         style="fill:#d45500;fill-rule:evenodd;stroke:#d45500;stroke-width:1px;stroke-linecap:butt;stroke-linejoin:miter;stroke-opacity:1" />
      <path
         sodipodi:nodetypes="cscscsccccc"
         id="path2399"
         d="M 602.47812,266.12558 C 602.47812,266.12558 548.72702,321.16473 520.22856,300.80869 C 456.58895,255.35182 455.5788,253.33152 455.5788,253.33152 C 455.5788,253.33152 413.15239,222.01679 348.50263,228.07771 C 283.85287,234.13862 255.56859,278.58533 255.56859,278.58533 C 255.56859,278.58533 151.52288,414.95593 128.28937,426.0676 C 105.05586,437.17928 56.568543,427.07776 56.568543,427.07776 L 82.480622,454.53045 L 139.2357,449.25996 L 303.14752,270.36436 L 554.43754,320.77339"
         style="fill:#d45500;fill-opacity:1;fill-rule:evenodd;stroke:#d45500;stroke-width:5;stroke-linecap:butt;stroke-linejoin:miter;stroke-miterlimit:4;stroke-dasharray:none;stroke-opacity:1" />
      <path
         sodipodi:nodetypes="csssss"
         id="path2401"
         d="M 81.465214,455.12218 C 81.465214,455.12218 131.31983,458.89756 151.52288,443.74527 C 171.72594,428.59298 261.12443,353.33662 268.1955,346.26555 C 271.73104,342.73002 365.67522,292.98 377.29198,284.39371 C 383.10035,280.10056 323.24881,264.88514 303.2983,269.3677 C 283.34779,273.85025 199.75766,380.86328 203.54573,380.61075"
         style="fill:#d45500;fill-rule:evenodd;stroke:#d45500;stroke-width:5;stroke-linecap:butt;stroke-linejoin:miter;stroke-miterlimit:4;stroke-dasharray:none;stroke-opacity:1" />
      <path
         sodipodi:nodetypes="csssccsscccccssssc"
         id="path2403"
         d="M 284.98557,326.67527 C 284.98557,326.67527 279.81226,337.17418 285.87317,349.29601 C 291.93409,361.41784 305.06607,366.4686 304.05592,370.50921 C 303.04576,374.54982 277.79195,413.94577 265.67012,422.02699 C 253.54829,430.10821 224.25387,443.2402 224.25387,443.2402 L 223.24371,443.2402 C 223.24371,443.2402 222.23356,485.6666 222.23356,504.8595 C 222.23356,524.0524 216.17264,530.11332 207.08127,531.12347 C 197.9899,532.13362 197.9899,533.14377 197.9899,533.14377 L 214.15234,545.2656 L 249.50768,537.18438 L 250.51783,480.61584 L 250.51783,475.56508 C 250.51783,475.56508 254.55844,464.4534 283.85287,445.2605 C 313.14729,426.0676 351.53309,417.98638 360.62446,408.89501 C 369.71583,399.80364 398.0001,373.53967 398.0001,362.42799 C 398.0001,351.31632 390.92904,298.78838 378.8072,293.73762 C 366.68537,288.68686 368.70568,288.68686 368.70568,288.68686"
         style="fill:#d45500;fill-rule:evenodd;stroke:#d45500;stroke-width:5;stroke-linecap:butt;stroke-linejoin:miter;stroke-miterlimit:4;stroke-dasharray:none;stroke-opacity:1" />
      <path
         id="path2405"
         d="M 394.96965,372.52952 C 394.96965,372.52952 417.193,387.68181 434.36559,391.72242 C 451.53819,395.76303 452.54834,392.73257 452.54834,392.73257"
         style="fill:#d45500;fill-rule:evenodd;stroke:#d45500;stroke-width:5;stroke-linecap:butt;stroke-linejoin:miter;stroke-miterlimit:4;stroke-dasharray:none;stroke-opacity:1" />
      <path
         id="path2407"
         d="M 517.1981,340.20464 C 517.1981,340.20464 513.15749,320.00159 490.93414,326.0625 C 468.71078,332.12342 457.5991,336.16403 454.56865,349.29601 C 451.53819,362.42799 450.52804,388.69196 454.56865,396.77318 C 458.60926,404.8544 466.69048,432.12852 461.63971,434.14882 C 456.58895,436.16913 446.48743,424.0473 446.48743,424.0473"
         style="fill:#d45500;fill-rule:evenodd;stroke:#d45500;stroke-width:5;stroke-linecap:butt;stroke-linejoin:miter;stroke-miterlimit:4;stroke-dasharray:none;stroke-opacity:1" />
      <path
         id="path2409"
         d="M 477.80215,376.57013 C 477.80215,376.57013 483.86307,398.79349 481.84276,408.89501 C 479.82246,418.99654 473.76154,413.94577 475.78185,437.17928 C 477.80215,460.41279 483.86307,461.42294 466.69048,461.42294 C 449.51788,461.42294 439.41636,438.18944 439.41636,438.18944 L 445.47727,422.02699"
         style="fill:#d45500;fill-rule:evenodd;stroke:#d45500;stroke-width:5;stroke-linecap:butt;stroke-linejoin:miter;stroke-miterlimit:4;stroke-dasharray:none;stroke-opacity:1" />
      <path
         sodipodi:nodetypes="cssssssssssc"
         id="path2413"
         d="M 483.86307,393.74272 C 483.86307,393.74272 519.21841,396.77318 533.36054,392.73257 C 547.50268,388.69196 552.55344,390.71227 565.68543,376.57013 C 578.81741,362.42799 578.81741,363.43815 590.93924,356.36708 C 603.06107,349.29601 597.00015,339.19449 612.15244,344.24525 C 627.30473,349.29601 632.35549,350.30616 639.42656,355.35693 C 646.49763,360.40769 649.52809,365.45845 656.59915,362.42799 C 663.67022,359.39754 669.73114,360.40769 667.71083,346.26555 C 665.69053,332.12342 675.79205,345.2554 660.63976,325.05235 C 645.48748,304.8493 642.45702,292.72747 629.32504,286.66655 C 616.19305,280.60564 610.643,274.0897 606.09153,269.49396 C 603.21163,266.58606 602.14021,265.96106 602.14021,265.96106"
         style="fill:#d45500;fill-opacity:1;fill-rule:evenodd;stroke:#d45500;stroke-width:5;stroke-linecap:butt;stroke-linejoin:miter;stroke-miterlimit:4;stroke-dasharray:none;stroke-opacity:1" />
      <path
         id="path2415"
         d="M 620.23366,280.60564 C 620.23366,280.60564 617.20321,275.55488 625.28443,263.43304 C 633.36565,251.31121 633.36565,247.2706 633.36565,247.2706 L 613.1626,260.40259 L 605.08137,267.47365 L 604.07122,268.48381"
         style="fill:#d45500;fill-rule:evenodd;stroke:#d45500;stroke-width:5;stroke-linecap:butt;stroke-linejoin:miter;stroke-miterlimit:4;stroke-dasharray:none;stroke-opacity:1" />
      <path
         id="path2417"
         d="M 571.74634,248.28076 C 571.74634,248.28076 566.69558,258.38228 570.73619,271.51427 C 574.7768,284.64625 573.76665,284.64625 582.85802,290.70716 C 591.94939,296.76808 600.03061,301.81884 603.06107,296.76808 C 606.09153,291.71732 608.11183,275.55488 600.03061,267.47365 C 591.94939,259.39243 571.74634,250.30106 571.74634,248.28076 z"
         style="fill:#d45500;fill-opacity:1;fill-rule:evenodd;stroke:#d45500;stroke-width:5;stroke-linecap:butt;stroke-linejoin:miter;stroke-miterlimit:4;stroke-dasharray:none;stroke-opacity:1" />
      <path
         transform="translate(-7.1428571,-5.7142857)"
         d="M 639.28571,316.46933 A 6.7857141,6.9642859 0 1 1 625.71429,316.46933 A 6.7857141,6.9642859 0 1 1 639.28571,316.46933 z"
         sodipodi:ry="6.9642859"
         sodipodi:rx="6.7857141"
         sodipodi:cy="316.46933"
         sodipodi:cx="632.5"
         id="path2419"
         style="opacity:1;fill:#d45500;fill-opacity:1;stroke:#d45500;stroke-width:5;stroke-linecap:round;stroke-miterlimit:4;stroke-dasharray:none;stroke-dashoffset:0;stroke-opacity:1"
         sodipodi:type="arc" />
    </g>
    <text
       xml:space="preserve"
       style="font-size:84.23834991px;font-style:normal;font-variant:normal;font-weight:bold;font-stretch:normal;text-align:start;line-height:100%;writing-mode:lr-tb;text-anchor:start;fill:#550000;fill-opacity:1;stroke:#550000;stroke-width:0.2681025px;stroke-linecap:butt;stroke-linejoin:miter;stroke-opacity:1;font-family:Sans;-inkscape-font-specification:Sans Bold"
       x="202.01106"
       y="216.93089"
       id="text3191"
       sodipodi:linespacing="100%"
       transform="scale(0.9666105,1.0345429)"><tspan
         sodipodi:role="line"
         id="tspan3193"
         x="202.01106"
         y="216.93089"
         style="stroke-width:0.2681025">RooJS</tspan></text>
    <g
       id="g3326"
       transform="matrix(0.4163074,0,0,0.4163074,-163.15532,88.183512)">
      <path
         sodipodi:nodetypes="ccccc"
         id="rect3318"
         d="M 24.037054,997.20734 L 249.22259,1002.8286 L 251.59867,1234.1014 L 24.037054,1234.1014 L 24.037054,997.20734 z"
         style="fill:#000000;fill-opacity:1;stroke:#000000;stroke-width:4.08194256;stroke-linecap:round;stroke-miterlimit:4;stroke-dashoffset:0;stroke-opacity:1"
         transform="matrix(0.7257412,-0.6879678,0.6879678,0.7257412,0,0)" />
      <path
         style="fill:#ab8721"
         d="M 845.5,891.18539 C 843.85,889.2262 841.47597,887.21768 840.22437,886.72201 C 838.97278,886.22634 837.66582,885.0835 837.32003,884.18237 C 836.97423,883.28124 835.41076,881.23397 833.84565,879.63288 C 832.28054,878.0318 831,876.06234 831,875.2563 C 831,874.45026 830.5913,873.79078 830.09178,873.79078 C 828.92941,873.79078 822.16478,867.08745 814.5,858.34029 C 811.2,854.57428 807.0375,849.91597 805.25,847.98849 C 803.4625,846.06101 802,843.87801 802,843.13738 C 802,842.39675 801.49137,841.79078 800.86972,841.79078 C 799.48158,841.79078 786,828.19702 786,826.79733 C 786,826.24373 785.325,825.79078 784.5,825.79078 C 783.675,825.79078 783,825.13161 783,824.32596 C 783,823.52031 782.1,822.37948 781,821.79078 C 779.9,821.20208 779,820.06125 779,819.2556 C 779,818.44995 778.4375,817.75577 777.75,817.71297 C 776.31324,817.62354 765,804.42941 765,802.84321 C 765,802.26437 764.19702,801.79078 763.21561,801.79078 C 762.23419,801.79078 760.64818,800.46521 759.69113,798.84506 C 758.19054,796.30476 747.83309,785.18109 729.37925,766.29078 C 726.69279,763.54078 723.97399,760.12108 723.33748,758.69145 C 722.70096,757.26181 720.75495,755.01181 719.01302,753.69145 C 713.96196,749.86281 705,740.57594 705,739.1704 C 705,738.67269 703.80071,737.37117 702.33492,736.27813 C 699.17096,733.91877 698.5615,733.29587 694,727.75938 C 692.075,725.42293 689.7125,722.79916 688.75,721.92879 C 687.7875,721.05842 687,719.12286 687,717.62756 C 687,716.13225 686.55,714.6307 686,714.29078 C 684.5179,713.37479 684.78822,704.23341 686.41235,700.34631 C 687.18914,698.48718 688.65164,696.01898 689.66235,694.86142 C 694.15244,689.71892 697.12866,686.79078 697.8655,686.79078 C 698.3036,686.79078 699.26412,685.66578 700,684.29078 C 700.73588,682.91578 701.99016,681.79078 702.78729,681.79078 C 704.21225,681.79078 709.95278,676.00775 709.98403,674.54078 C 709.99281,674.12828 710.42954,673.79078 710.95454,673.79078 C 711.47954,673.79078 712.98579,672.77828 714.30176,671.54078 C 715.61773,670.30328 718.65905,667.71578 721.06024,665.79078 C 723.46143,663.86578 726.39429,661.27828 727.5777,660.04078 C 728.7611,658.80328 730.19209,657.79078 730.75768,657.79078 C 731.32327,657.79078 732.05599,657.08726 732.38595,656.2274 C 732.71591,655.36754 733.43905,654.9441 733.99294,655.28641 C 735.31183,656.10153 735.28928,657.79078 733.95951,657.79078 C 732.21729,657.79078 727,662.07844 727,663.51022 C 727,664.24905 726.24976,665.14145 725.33279,665.49332 C 724.41583,665.84519 721.99348,667.85607 719.94981,669.96193 C 717.90614,672.0678 715.84388,673.81162 715.36702,673.83708 C 714.89016,673.86255 713.15,675.64172 711.5,677.79078 C 709.85,679.93984 708.09802,681.71901 707.60672,681.74448 C 707.11541,681.76994 703.65924,684.94346 699.92633,688.79675 C 689.08086,699.99196 686.67998,710.52995 692.77015,720.20682 C 695.15473,723.99576 697.56789,726.69185 712.5,742.24991 C 716.35,746.2613 721.70238,751.96152 724.39418,754.91707 C 727.08598,757.87261 733.52461,764.79078 738.70225,770.29078 C 756.23482,788.91492 759.49386,792.40557 762.56709,795.85161 C 764.25399,797.74316 770.66649,804.79245 776.81709,811.51671 C 782.96769,818.24097 788,824.20347 788,824.76671 C 788,825.32995 788.675,825.79078 789.5,825.79078 C 790.325,825.79078 791.00762,826.12828 791.01694,826.54078 C 791.02626,826.95328 793.09354,829.54078 795.6109,832.29078 C 802.09836,839.3778 813.80231,852.07853 818.43585,857.05967 C 820.60057,859.38678 826.43578,865.79078 831.403,871.29078 C 843.32092,884.48701 846.66806,887.76095 851.75,891.19277 C 854.0875,892.77128 856,894.22658 856,894.42678 C 856,894.62698 854.3125,894.78106 852.25,894.76917 C 849.19342,894.75155 847.94526,894.08887 845.5,891.18539 z M 873,890.79078 C 873,890.24078 873.3977,889.79078 873.88379,889.79078 C 874.36987,889.79078 877.85737,886.83083 881.63379,883.2131 C 901.7241,863.96704 914.49059,851.67291 923.16914,843.21457 C 928.48717,838.03149 933.05959,833.79078 933.33007,833.79078 C 933.60056,833.79078 936.22444,831.31858 939.16093,828.29701 C 942.09742,825.27544 945.07215,822.80044 945.77144,822.79701 C 946.47073,822.79358 947.55546,821.66578 948.18195,820.29078 C 948.80845,818.91578 949.9238,817.79078 950.66052,817.79078 C 951.39723,817.79078 952,817.35661 952,816.82596 C 952,816.29531 952.9,815.37948 954,814.79078 C 955.20305,814.14693 956,814.10329 956,814.68128 C 956,815.95043 946.23787,825.79078 944.9788,825.79078 C 944.44046,825.79078 944,826.27273 944,826.86179 C 944,827.45084 941.67389,830.03834 938.83087,832.61179 C 929.07754,841.44031 923,847.61815 923,848.70394 C 923,849.3017 922.56955,849.79078 922.04346,849.79078 C 921.51736,849.79078 919.15486,851.58517 916.79346,853.77831 C 914.43205,855.97146 911.9375,857.77146 911.25,857.77831 C 910.5625,857.78517 910,858.49976 910,859.3663 C 910,860.9162 897.28242,873.69626 895.6779,873.75876 C 895.22574,873.77637 891.53877,877.21719 887.48463,881.40503 C 879.12756,890.03768 873,894.00822 873,890.79078 z M 857.2536,884.68312 C 853.37775,883.55172 846.03803,876.40506 825.46851,853.73413 C 804.5847,830.71679 799.75661,825.44617 794.37514,819.79078 C 790.97329,816.21578 786.23472,811.08972 783.84498,808.39953 C 781.45524,805.70935 775.62369,799.40935 770.88598,794.39953 C 766.14827,789.38972 760.52327,783.26324 758.38598,780.78513 C 756.24869,778.30702 752.7,774.41288 750.5,772.13148 C 748.3,769.85008 743.125,764.27921 739,759.75177 C 734.875,755.22433 727.86852,747.75426 723.43005,743.15163 C 718.99158,738.549 712.91658,731.88581 709.93005,728.34455 C 706.94352,724.8033 704.05,721.86095 703.5,721.80602 C 701.48906,721.60515 698.13828,714.7457 697.4809,709.4842 C 696.84093,704.36209 696.97972,703.87915 700.15294,700.18613 C 701.99382,698.04369 703.91625,696.11453 704.425,695.89911 C 704.93375,695.6837 706.76809,694.1087 708.50132,692.39911 C 712.8799,688.08026 723.91999,678.45775 725.60557,677.49109 C 726.37251,677.05126 727,676.03876 727,675.24109 C 727,674.44342 727.3375,673.77872 727.75,673.76398 C 728.1625,673.74924 730.975,671.44268 734,668.63829 C 737.025,665.83391 740.5125,662.86921 741.75,662.05008 C 742.9875,661.23096 744,659.93751 744,659.17577 C 744,658.41403 744.37205,657.79078 744.82677,657.79078 C 745.2815,657.79078 747.869,655.72617 750.57677,653.20277 C 753.28455,650.67936 756.49495,647.9391 757.71101,647.11331 C 758.92706,646.28751 760.16388,644.86462 760.4595,643.95132 C 760.75512,643.03802 762.51153,641.26216 764.36264,640.00497 C 766.21375,638.74777 771.14026,634.47277 775.31044,630.50497 C 779.48063,626.53716 784.82926,621.59757 787.1963,619.5281 C 789.56333,617.45862 794.2,613.26626 797.5,610.21173 C 800.8,607.15721 805.42687,603.00042 807.78193,600.97442 C 810.13699,598.94842 816.55277,592.90328 822.03922,587.54078 C 827.52567,582.17828 832.26673,577.79078 832.57491,577.79078 C 832.88309,577.79078 836.70152,574.19078 841.06032,569.79078 C 845.41912,565.39078 849.20334,561.79078 849.4697,561.79078 C 849.73606,561.79078 852.50934,559.31578 855.63255,556.29078 C 859.00356,553.02577 862.20138,550.79078 863.50192,550.79078 C 864.70686,550.79078 867.13297,550.07229 868.89326,549.19414 C 870.89664,548.19472 873.09207,547.84806 874.76264,548.26734 C 878.56294,549.22116 886.38768,555.20693 890.67707,560.44157 C 892.69162,562.90006 899.40744,570.17188 905.6011,576.60117 C 911.79477,583.03045 920.28074,591.89078 924.45882,596.29078 C 928.63689,600.69078 936.99287,609.43777 943.02766,615.72853 C 949.06245,622.0193 954,627.32181 954,627.5119 C 954,627.70199 957.7125,631.59257 962.25,636.15762 C 976.30752,650.3005 997.77332,673.13227 1001.1807,677.56564 C 1002.9667,679.88947 1004.7225,681.79078 1005.0824,681.79078 C 1005.9467,681.79078 1015,690.86004 1015,691.72585 C 1015,692.0954 1018.0375,695.36309 1021.75,698.98737 C 1025.4625,702.61165 1030.2294,707.53758 1032.343,709.93388 C 1035.99,714.06853 1036.1596,714.55824 1035.666,719.53395 C 1035.38,722.41769 1034.2603,726.01769 1033.1778,727.53395 C 1031.1271,730.40655 1021.6583,739.62316 999.01113,760.79078 C 977.85124,780.56826 964.97751,792.70134 958.5,798.97124 C 955.2,802.16547 951.7125,804.78159 950.75,804.78485 C 949.7875,804.78811 949,805.45711 949,806.27151 C 949,807.61887 938.83281,817.86416 922.11077,833.36728 C 918.59669,836.6252 911.35702,843.56578 906.02261,848.79078 C 888.6045,865.85163 872.23942,881.03752 869.34086,882.82942 C 865.55174,885.17185 861.20924,885.83781 857.2536,884.68312 z M 869.24179,860.29078 C 868.92653,854.18588 867.3519,852.79078 860.77665,852.79078 C 856.67113,852.79078 855.80827,853.13265 855.09785,855.04078 C 854.08517,857.76076 854.71086,859.47139 858,862.97529 C 860.05986,865.16964 861.29226,865.60791 865,865.46465 L 869.5,865.29078 L 869.24179,860.29078 z M 946.47792,794.23208 C 948.00188,793.08012 948.21605,792.35685 947.41109,791.08071 C 945.98009,788.8121 944.82705,788.29326 934.5,785.27094 C 919.80614,780.97063 915.5529,779.55931 914.55,778.65109 C 914.0275,778.17792 912.655,777.79078 911.5,777.79078 C 910.345,777.79078 908.9725,777.41949 908.45,776.96569 C 907.9275,776.51188 902.92031,774.67178 897.32292,772.87656 C 887.31797,769.66773 887.11689,769.54214 885.43481,765.45165 C 884.16847,762.37216 883.59616,757.22175 883.23273,745.63422 L 882.74167,729.97766 L 886.44645,723.87894 C 890.65936,716.94373 892.7868,715.37902 896.22562,716.68646 C 901.43246,718.6661 901.6545,719.95251 899.09152,733.29078 C 897.32414,742.4886 896.4435,744.0985 893.9187,742.74727 C 891.59846,741.50551 891.28617,741.61628 890.97659,743.79078 C 890.5456,746.81804 891.06547,747.61795 894.16639,748.69894 C 896.70198,749.58285 897.79768,749.49814 899.66639,748.27371 C 900.94988,747.43274 902,746.32258 902,745.80668 C 902,745.29079 902.91021,744.0207 904.02269,742.98426 C 905.13517,741.94783 907.95369,738.2515 910.28607,734.77019 C 914.73861,728.12432 922.03978,721.96963 925.60448,721.85717 C 926.76194,721.82066 929.23694,720.16513 931.10448,718.17824 C 937.17258,711.7223 943.43935,705.79078 944.19208,705.79078 C 944.59671,705.79078 946.64528,703.94951 948.74447,701.69907 C 952.31755,697.86853 953.03796,697.55218 960.03059,696.74298 C 964.13876,696.26757 970.54715,695.85884 974.27144,695.83469 C 980.43957,695.79469 981.1409,695.57563 982.14312,693.37602 C 983.11626,691.24019 982.85389,690.60685 979.87168,687.89309 C 974.33169,682.8518 973.03062,681.79078 972.38878,681.79078 C 972.05261,681.79078 969.62766,679.99078 967,677.79078 C 964.37234,675.59078 961.49739,673.79078 960.61122,673.79078 C 959.72505,673.79078 959,673.37653 959,672.87024 C 959,672.36394 957.71433,671.66731 956.14295,671.32218 C 954.57157,670.97704 951.60338,669.15354 949.54697,667.26994 C 945.42203,663.49164 936.28269,658.79078 933.06193,658.79078 C 929.71465,658.79078 930.54944,662.79876 934.88448,667.54122 C 937.02094,669.87848 939.44084,671.79078 940.26203,671.79078 C 941.08323,671.79078 942.27886,672.42186 942.919,673.19318 C 945.91147,676.79889 931.11047,681.31261 924.5,678.81025 C 920.21106,677.18669 915.01485,673.50059 915.00683,672.07596 C 915.00307,671.40781 914.1,670.37948 913,669.79078 C 911.9,669.20208 911,668.22303 911,667.61513 C 911,665.87816 906.7381,657.79078 905.82274,657.79078 C 905.37024,657.79078 905,657.19817 905,656.47387 C 905,654.447 891.94104,641.79078 889.84967,641.79078 C 888.83235,641.79078 888,641.39776 888,640.91741 C 888,640.43706 884.49452,638.64516 880.21003,636.93542 C 873.32537,634.18807 871.61121,633.88756 865.46003,634.34959 C 857.79946,634.92499 844.39961,638.41271 841.92126,640.47627 C 841.05295,641.19925 840.0954,641.79078 839.79337,641.79078 C 838.9838,641.79078 827.97855,651.75856 824.50095,655.64157 C 814.50445,666.80345 791.0487,689.79078 789.65587,689.79078 C 788.74514,689.79078 787.99715,690.12828 787.99368,690.54078 C 787.98571,691.4863 784.21748,693.73261 771,700.67103 C 760.62185,706.11897 760.40443,706.18156 752.26391,706.06486 C 745.65357,705.97009 743.45178,705.5366 741.10954,703.86878 C 739.50449,702.72588 737.7976,701.79078 737.31647,701.79078 C 735.88865,701.79078 729.14354,694.81841 728.44637,692.62181 C 727.62364,690.02962 724.23232,686.60585 723.56191,687.69061 C 722.52872,689.36234 726.7221,701.55024 729.5669,705.14393 C 734.09331,710.86191 743.42106,716.36653 751,717.79232 C 758.38449,719.18154 762.48479,718.60502 776,714.27724 C 780.675,712.78023 786.70613,710.941 789.40251,710.19006 C 792.09889,709.43912 795.05932,708.14208 795.98125,707.30775 C 796.90318,706.47342 797.9273,705.79078 798.25707,705.79078 C 799.54538,705.79078 811,698.50659 811,697.68732 C 811,696.52755 817.66346,693.79078 820.48727,693.79078 C 821.72092,693.79078 823.87445,694.69078 825.27287,695.79078 C 826.67129,696.89078 828.2307,697.79078 828.73821,697.79078 C 829.76633,697.79078 836,706.11837 836,707.49185 C 836,709.73774 850.38858,721.75761 853.15437,721.8222 C 857.67655,721.92781 868.62716,749.27436 873.00184,771.38656 C 874.41254,778.51705 875.90027,779.74457 886,782.11127 C 908.59675,787.40644 918.96652,789.76094 922.34075,790.36258 C 924.45316,790.73924 929.17816,792.10518 932.84075,793.398 C 940.5558,796.12127 943.72241,796.31495 946.47792,794.23208 z M 942.81955,739.96245 C 943.0233,738.57779 942.60907,737.79078 941.67654,737.79078 C 940.02933,737.79078 938.6811,740.46577 939.5884,741.93381 C 940.5492,743.48842 942.47347,742.3144 942.81955,739.96245 z M 874.42857,574.21935 C 875.31899,573.32893 876,570.96065 876,568.75454 C 876,563.87557 873.61035,562.32221 867.51161,563.23677 C 863.44495,563.8466 863.2279,564.05501 862.72062,567.83704 C 861.80502,574.66338 862.55975,575.79078 868.0452,575.79078 C 871.08636,575.79078 873.43542,575.2125 874.42857,574.21935 z M 959,810.91322 C 959,809.60981 961.58284,807.70695 962.33333,808.45745 C 963.08383,809.20794 961.18097,811.79078 959.87756,811.79078 C 959.3949,811.79078 959,811.39588 959,810.91322 z M 963.89508,805.54078 C 964.86113,802.92395 968,801.88516 968,804.18227 C 968,805.02825 967.12958,806.18625 966.06574,806.7556 C 963.2841,808.24429 962.96331,808.06475 963.89508,805.54078 z M 971.12066,797.79078 C 973.43334,795.59078 975.37542,793.79078 975.4364,793.79078 C 975.49738,793.79078 979.29533,790.19078 983.8763,785.79078 C 988.45726,781.39078 992.83412,777.79078 993.60266,777.79078 C 994.3712,777.79078 995,777.29936 995,776.69874 C 995,775.57276 1003.8663,766.70567 1017.6315,754.06516 C 1038.7404,734.68093 1039.8753,733.4424 1042.5417,726.88038 C 1044.6824,721.61222 1044.9359,720.04573 1044.0564,717.52267 C 1043.4754,715.85599 1043,713.67947 1043,712.68597 C 1043,709.99285 1034.421,697.79078 1032.5276,697.79078 C 1031.9246,697.79078 1030.6166,696.41172 1029.6209,694.7262 C 1028.6253,693.04068 1026.7282,691.16845 1025.4053,690.56569 C 1024.0824,689.96292 1023,689.0839 1023,688.6123 C 1023,688.1407 1020.3,684.96114 1017,681.54662 C 1013.7,678.13209 1011,674.99017 1011,674.56458 C 1011,674.13899 1010.325,673.79078 1009.5,673.79078 C 1008.675,673.79078 1008,673.41403 1008,672.95355 C 1008,672.49307 1006.3125,670.32355 1004.25,668.13239 C 1002.1875,665.94123 997.47046,660.91798 993.76768,656.96962 C 990.06491,653.02126 986.60773,649.79078 986.08507,649.79078 C 985.56241,649.79078 984.8389,648.85856 984.47728,647.71919 C 984.11565,646.57981 980.927,642.75481 977.39137,639.21919 C 973.85575,635.68356 971.28423,632.79078 971.6769,632.79078 C 972.06956,632.79078 970.67134,631.21578 968.56972,629.29078 C 966.46811,627.36578 964.35518,625.79078 963.87431,625.79078 C 963.39344,625.79078 963,625.11578 963,624.29078 C 963,622.43615 965.61229,622.3129 966.70031,624.11619 C 967.14014,624.84517 968.2875,625.73104 969.25,626.08481 C 970.2125,626.43857 971,627.64213 971,628.7594 C 971,629.8984 971.65894,630.79078 972.5,630.79078 C 973.325,630.79078 974,631.46578 974,632.29078 C 974,633.11578 974.3375,633.79399 974.75,633.7979 C 975.50969,633.80512 979.71875,637.80784 987.09822,645.54078 C 989.32887,647.87828 991.45681,649.80288 991.82698,649.81768 C 992.19714,649.83247 993.60296,651.63247 994.95103,653.81768 C 996.29909,656.00288 997.98659,657.79078 998.70103,657.79078 C 999.41546,657.79078 1000,658.12854 1000,658.54135 C 1000,658.95416 1003.375,662.8467 1007.5,667.19143 C 1011.625,671.53616 1015,675.29286 1015,675.53965 C 1015,676.34668 1021.1884,681.79078 1022.1058,681.79078 C 1022.5976,681.79078 1023,682.70192 1023,683.81553 C 1023,685.05513 1023.9694,686.20886 1025.5,686.79078 C 1026.875,687.31355 1028,688.18503 1028,688.72739 C 1028,689.92887 1035.8172,697.79078 1037.0118,697.79078 C 1037.4812,697.79078 1038.1195,698.57828 1038.4302,699.54078 C 1038.7409,700.50328 1040.5635,702.99486 1042.4804,705.07763 C 1047.2459,710.25567 1049.5243,718.13001 1047.9493,723.979 C 1047.3119,726.34619 1046.6268,729.13239 1046.4269,730.17054 C 1046.2269,731.2087 1045.1491,732.69847 1044.0317,733.48115 C 1042.9143,734.26382 1042,735.55367 1042,736.34748 C 1042,737.1413 1041.4128,737.79078 1040.6951,737.79078 C 1039.9773,737.79078 1035.9933,741.05328 1031.8417,745.04078 C 1027.6901,749.02828 1020.1465,756.11578 1015.0782,760.79078 C 1010.0098,765.46578 1004.0246,771.20328 1001.7777,773.54078 C 999.53079,775.87828 997.11694,777.79078 996.41359,777.79078 C 995.71024,777.79078 994.86548,778.63926 994.53633,779.6763 C 994.20719,780.71333 992.26437,782.72771 990.21895,784.1527 C 988.17353,785.57768 985.24332,788.3292 983.70737,790.26718 C 982.17142,792.20516 980.43154,793.79078 979.84096,793.79078 C 979.25039,793.79078 977.07196,795.59078 975,797.79078 C 972.86426,800.05851 970.29803,801.79078 969.0743,801.79078 C 967.20401,801.79078 967.47726,801.25666 971.12066,797.79078 z M 735,654.24121 C 735,653.45402 741.57433,646.79078 742.35102,646.79078 C 742.70796,646.79078 743,647.46578 743,648.29078 C 743,649.11578 742.59723,649.79078 742.10496,649.79078 C 741.61269,649.79078 740.15019,650.90801 738.85496,652.2735 C 736.62466,654.6248 735,655.45409 735,654.24121 z M 746,642.8498 C 746,642.26734 746.45,641.79078 747,641.79078 C 747.55,641.79078 748,641.98922 748,642.23176 C 748,642.4743 747.55,642.95086 747,643.29078 C 746.45,643.6307 746,643.43226 746,642.8498 z M 749,641.24897 C 749,640.14697 752.99959,636.45703 753.57277,637.03022 C 753.89941,637.35686 753.22917,638.56161 752.08333,639.70745 C 750.01214,641.77864 749,642.28466 749,641.24897 z M 757.81467,633.28137 C 759.08773,632.34935 760.40023,631.85768 760.73133,632.18878 C 761.53208,632.98953 760.98703,633.40268 758,634.25914 L 755.5,634.97595 L 757.81467,633.28137 z M 958.2,619.59078 C 957.54,618.93078 957,618.03002 957,617.5891 C 957,617.14817 951.6,611.40726 945,604.83152 C 933.98866,593.86066 931.54999,590.79078 933.8462,590.79078 C 934.3116,590.79078 938.4741,594.67096 943.0962,599.4134 C 947.71829,604.15584 953.8625,610.34121 956.75,613.15866 C 961.91704,618.20034 963.25772,620.79078 960.7,620.79078 C 959.985,620.79078 958.86,620.25078 958.2,619.59078 z M 775,617.3498 C 775,617.10726 775.45,616.6307 776,616.29078 C 776.55,615.95086 777,616.1493 777,616.73176 C 777,617.31422 776.55,617.79078 776,617.79078 C 775.45,617.79078 775,617.59234 775,617.3498 z M 787.2619,605.1003 C 788.19167,604.17054 789.23316,603.6906 789.57633,604.03377 C 790.56051,605.01796 789.04964,606.79078 787.2267,606.79078 C 785.70022,606.79078 785.70296,606.65925 787.2619,605.1003 z M 791.5,601.79078 C 791.83992,601.24078 792.56803,600.79078 793.11803,600.79078 C 793.66803,600.79078 793.83992,601.24078 793.5,601.79078 C 793.16008,602.34078 792.43197,602.79078 791.88197,602.79078 C 791.33197,602.79078 791.16008,602.34078 791.5,601.79078 z M 927.44862,585.59173 C 926.3416,584.31854 923.87528,582.04747 921.96793,580.5449 C 918.83636,578.07793 918.71712,577.81188 920.73857,577.80187 C 923.05058,577.79042 927,580.53477 927,582.15278 C 927,582.65741 927.73692,583.60914 928.6376,584.26774 C 929.53828,584.92633 930.09209,586.0145 929.86829,586.6859 C 929.60619,587.4722 928.74511,587.08283 927.44862,585.59173 z M 918.05844,575.11916 C 915.06197,573.02035 909,566.63831 909,565.58244 C 909,564.0468 910.87642,564.81805 912.67742,567.09394 C 913.67984,568.36068 915.175,569.6605 916,569.98244 C 917.28654,570.48447 921.71318,576.79078 920.77904,576.79078 C 920.59533,576.79078 919.37106,576.03855 918.05844,575.11916 z M 902.55887,558.25898 C 901.49125,557.45147 901.09865,556.79078 901.68643,556.79078 C 902.2742,556.79078 903.31531,557.46578 904,558.29078 C 905.5572,560.1671 905.06734,560.15629 902.55887,558.25898 z M 894.7561,550.54078 C 893.3914,548.75328 890.77757,545.82828 888.94758,544.04078 C 887.11759,542.25328 886.12309,540.79078 886.73758,540.79078 C 887.35207,540.79078 888.73976,541.91578 889.82134,543.29078 C 890.90292,544.66578 892.28558,545.79078 892.89392,545.79078 C 893.50226,545.79078 894,546.46578 894,547.29078 C 894,548.11578 894.65917,548.79078 895.46482,548.79078 C 896.74469,548.79078 899,551.61967 899,553.22504 C 899,554.73528 896.98586,553.46133 894.7561,550.54078 z"
         id="path3305" />
      <text
         transform="scale(0.9666105,1.0345429)"
         sodipodi:linespacing="100%"
         id="text3322"
         y="763.72729"
         x="1072.431"
         style="font-size:208.1971283px;font-style:normal;font-variant:normal;font-weight:bold;font-stretch:normal;text-align:start;line-height:100%;writing-mode:lr-tb;text-anchor:start;fill:#550000;fill-opacity:1;stroke:#550000;stroke-width:0.6626218px;stroke-linecap:butt;stroke-linejoin:miter;stroke-opacity:1;display:inline;font-family:Sans;-inkscape-font-specification:Sans Bold"
         xml:space="preserve"><tspan
           style="stroke-width:0.6626218"
           y="763.72729"
           x="1072.431"
           id="tspan3324"
           sodipodi:role="line">RooJS</tspan></text>
    </g>
    <text
       xml:space="preserve"
       style="font-size:84.23834991px;font-style:normal;font-variant:normal;font-weight:bold;font-stretch:normal;text-align:start;line-height:100%;writing-mode:lr-tb;text-anchor:start;fill:#550000;fill-opacity:1;stroke:#550000;stroke-width:0.2681025px;stroke-linecap:butt;stroke-linejoin:miter;stroke-opacity:1;display:inline;font-family:Sans;-inkscape-font-specification:Sans Bold"
       x="351.95795"
       y="614.00769"
       id="text14667"
       sodipodi:linespacing="100%"
       transform="scale(0.9666105,1.0345429)"
       inkscape:export-filename="/mnt/webdav/roojs1/buildSDK/rect14671.png"
       inkscape:export-xdpi="49.420258"
       inkscape:export-ydpi="49.420258"><tspan
         sodipodi:role="line"
         id="tspan14669"
         x="351.95795"
         y="614.00769"
         style="stroke-width:0.2681025">RooJS</tspan></text>
    <g
       id="g14643"
       style="fill:#d45500;stroke:#d45500;stroke-width:1.8428067;display:inline"
       transform="matrix(0.2523355,0,0,0.2646036,169.71783,489.95954)"
       inkscape:export-filename="/mnt/webdav/roojs1/buildSDK/rect14671.png"
       inkscape:export-xdpi="49.420258"
       inkscape:export-ydpi="49.420258">
      <path
         id="path14645"
         d="M 392.44426,366.4686 L 400.52548,374.04475 L 436.89098,389.19704 L 448.50773,390.71227 L 495.47982,393.23765 L 560.12959,321.01174 L 366.68537,282.12087 L 392.44426,366.4686 z"
         style="fill:#d45500;fill-rule:evenodd;stroke:#d45500;stroke-width:1.8428067px;stroke-linecap:butt;stroke-linejoin:miter;stroke-opacity:1" />
      <path
         sodipodi:nodetypes="cscscsccccc"
         id="path14647"
         d="M 602.47812,266.12558 C 602.47812,266.12558 548.72702,321.16473 520.22856,300.80869 C 456.58895,255.35182 455.5788,253.33152 455.5788,253.33152 C 455.5788,253.33152 413.15239,222.01679 348.50263,228.07771 C 283.85287,234.13862 255.56859,278.58533 255.56859,278.58533 C 255.56859,278.58533 151.52288,414.95593 128.28937,426.0676 C 105.05586,437.17928 56.568543,427.07776 56.568543,427.07776 L 82.480622,454.53045 L 139.2357,449.25996 L 303.14752,270.36436 L 554.43754,320.77339"
         style="fill:#d45500;fill-opacity:1;fill-rule:evenodd;stroke:#d45500;stroke-width:9.21403313;stroke-linecap:butt;stroke-linejoin:miter;stroke-miterlimit:4;stroke-dasharray:none;stroke-opacity:1" />
      <path
         sodipodi:nodetypes="csssss"
         id="path14649"
         d="M 81.465214,455.12218 C 81.465214,455.12218 131.31983,458.89756 151.52288,443.74527 C 171.72594,428.59298 261.12443,353.33662 268.1955,346.26555 C 271.73104,342.73002 365.67522,292.98 377.29198,284.39371 C 383.10035,280.10056 323.24881,264.88514 303.2983,269.3677 C 283.34779,273.85025 199.75766,380.86328 203.54573,380.61075"
         style="fill:#d45500;fill-rule:evenodd;stroke:#d45500;stroke-width:9.21403313;stroke-linecap:butt;stroke-linejoin:miter;stroke-miterlimit:4;stroke-dasharray:none;stroke-opacity:1" />
      <path
         sodipodi:nodetypes="csssccsscccccssssc"
         id="path14651"
         d="M 284.98557,326.67527 C 284.98557,326.67527 279.81226,337.17418 285.87317,349.29601 C 291.93409,361.41784 305.06607,366.4686 304.05592,370.50921 C 303.04576,374.54982 277.79195,413.94577 265.67012,422.02699 C 253.54829,430.10821 224.25387,443.2402 224.25387,443.2402 L 223.24371,443.2402 C 223.24371,443.2402 222.23356,485.6666 222.23356,504.8595 C 222.23356,524.0524 216.17264,530.11332 207.08127,531.12347 C 197.9899,532.13362 197.9899,533.14377 197.9899,533.14377 L 214.15234,545.2656 L 249.50768,537.18438 L 250.51783,480.61584 L 250.51783,475.56508 C 250.51783,475.56508 254.55844,464.4534 283.85287,445.2605 C 313.14729,426.0676 351.53309,417.98638 360.62446,408.89501 C 369.71583,399.80364 398.0001,373.53967 398.0001,362.42799 C 398.0001,351.31632 390.92904,298.78838 378.8072,293.73762 C 366.68537,288.68686 368.70568,288.68686 368.70568,288.68686"
         style="fill:#d45500;fill-rule:evenodd;stroke:#d45500;stroke-width:9.21403313;stroke-linecap:butt;stroke-linejoin:miter;stroke-miterlimit:4;stroke-dasharray:none;stroke-opacity:1" />
      <path
         id="path14653"
         d="M 394.96965,372.52952 C 394.96965,372.52952 417.193,387.68181 434.36559,391.72242 C 451.53819,395.76303 452.54834,392.73257 452.54834,392.73257"
         style="fill:#d45500;fill-rule:evenodd;stroke:#d45500;stroke-width:9.21403313;stroke-linecap:butt;stroke-linejoin:miter;stroke-miterlimit:4;stroke-dasharray:none;stroke-opacity:1" />
      <path
         id="path14655"
         d="M 517.1981,340.20464 C 517.1981,340.20464 513.15749,320.00159 490.93414,326.0625 C 468.71078,332.12342 457.5991,336.16403 454.56865,349.29601 C 451.53819,362.42799 450.52804,388.69196 454.56865,396.77318 C 458.60926,404.8544 466.69048,432.12852 461.63971,434.14882 C 456.58895,436.16913 446.48743,424.0473 446.48743,424.0473"
         style="fill:#d45500;fill-rule:evenodd;stroke:#d45500;stroke-width:9.21403313;stroke-linecap:butt;stroke-linejoin:miter;stroke-miterlimit:4;stroke-dasharray:none;stroke-opacity:1" />
      <path
         id="path14657"
         d="M 477.80215,376.57013 C 477.80215,376.57013 483.86307,398.79349 481.84276,408.89501 C 479.82246,418.99654 473.76154,413.94577 475.78185,437.17928 C 477.80215,460.41279 483.86307,461.42294 466.69048,461.42294 C 449.51788,461.42294 439.41636,438.18944 439.41636,438.18944 L 445.47727,422.02699"
         style="fill:#d45500;fill-rule:evenodd;stroke:#d45500;stroke-width:9.21403313;stroke-linecap:butt;stroke-linejoin:miter;stroke-miterlimit:4;stroke-dasharray:none;stroke-opacity:1" />
      <path
         sodipodi:nodetypes="cssssssssssc"
         id="path14659"
         d="M 483.86307,393.74272 C 483.86307,393.74272 519.21841,396.77318 533.36054,392.73257 C 547.50268,388.69196 552.55344,390.71227 565.68543,376.57013 C 578.81741,362.42799 578.81741,363.43815 590.93924,356.36708 C 603.06107,349.29601 597.00015,339.19449 612.15244,344.24525 C 627.30473,349.29601 632.35549,350.30616 639.42656,355.35693 C 646.49763,360.40769 649.52809,365.45845 656.59915,362.42799 C 663.67022,359.39754 669.73114,360.40769 667.71083,346.26555 C 665.69053,332.12342 675.79205,345.2554 660.63976,325.05235 C 645.48748,304.8493 642.45702,292.72747 629.32504,286.66655 C 616.19305,280.60564 610.643,274.0897 606.09153,269.49396 C 603.21163,266.58606 602.14021,265.96106 602.14021,265.96106"
         style="fill:#d45500;fill-opacity:1;fill-rule:evenodd;stroke:#d45500;stroke-width:9.21403313;stroke-linecap:butt;stroke-linejoin:miter;stroke-miterlimit:4;stroke-dasharray:none;stroke-opacity:1" />
      <path
         id="path14661"
         d="M 620.23366,280.60564 C 620.23366,280.60564 617.20321,275.55488 625.28443,263.43304 C 633.36565,251.31121 633.36565,247.2706 633.36565,247.2706 L 613.1626,260.40259 L 605.08137,267.47365 L 604.07122,268.48381"
         style="fill:#d45500;fill-rule:evenodd;stroke:#d45500;stroke-width:9.21403313;stroke-linecap:butt;stroke-linejoin:miter;stroke-miterlimit:4;stroke-dasharray:none;stroke-opacity:1" />
      <path
         id="path14663"
         d="M 571.74634,248.28076 C 571.74634,248.28076 566.69558,258.38228 570.73619,271.51427 C 574.7768,284.64625 573.76665,284.64625 582.85802,290.70716 C 591.94939,296.76808 600.03061,301.81884 603.06107,296.76808 C 606.09153,291.71732 608.11183,275.55488 600.03061,267.47365 C 591.94939,259.39243 571.74634,250.30106 571.74634,248.28076 z"
         style="fill:#d45500;fill-opacity:1;fill-rule:evenodd;stroke:#d45500;stroke-width:9.21403313;stroke-linecap:butt;stroke-linejoin:miter;stroke-miterlimit:4;stroke-dasharray:none;stroke-opacity:1" />
      <path
         transform="translate(-7.1428571,-5.7142857)"
         d="M 639.28571,316.46933 A 6.7857141,6.9642859 0 1 1 625.71429,316.46933 A 6.7857141,6.9642859 0 1 1 639.28571,316.46933 z"
         sodipodi:ry="6.9642859"
         sodipodi:rx="6.7857141"
         sodipodi:cy="316.46933"
         sodipodi:cx="632.5"
         id="path14665"
         style="opacity:1;fill:#d45500;fill-opacity:1;stroke:#d45500;stroke-width:9.21403313;stroke-linecap:round;stroke-miterlimit:4;stroke-dasharray:none;stroke-dashoffset:0;stroke-opacity:1"
         sodipodi:type="arc" />
    </g>
    <rect
       style="opacity:1;fill:#550000;fill-opacity:1;stroke:none;stroke-width:2;stroke-linecap:round;stroke-miterlimit:4;stroke-dasharray:none;stroke-dashoffset:0;stroke-opacity:1"
       id="rect14671"
       width="326.42859"
       height="12.589286"
       x="184.0179"
       y="640.25635"
       inkscape:export-xdpi="49.420258"
       inkscape:export-ydpi="49.420258" />
  </g>
</svg>
