
<svg viewBox="0 0 300 100" height="100" width="300" xmlns="http://www.w3.org/2000/svg" id="roo-gen1353">
    <rect fill="#ffa" height="100" width="300" id="svg-r"/>
    <line pointer-events="none" shape-rendering="crispEdges" stroke-dasharray="3" stroke-width="1" stroke="#666" y2="80" x2="300" y1="80" x1="0"/>
    <path pointer-events="none" fill="none" stroke-width="3" stroke="navy" id="svg-p" d="M68,23 L67,23 L66,22 L65,22 L64,22 L63,22 L62,22 L60,22 L59,22 L58,22 L57,22 L55,22 L53,24 L51,25 L49,27 L48,29 L47,30 L47,31 L47,32 L48,33 L50,35 L56,37 L60,39 L64,39 L70,39 L78,39 L89,36 L103,30 L110,26 L117,22 L124,18 L132,14 L143,8 L147,5 L153,2 L155,1 L156,0 M110,39 L111,40 L113,41 L114,41 L116,42 L117,43 L118,44 L120,45 L122,46 L125,47 L128,48 L130,49 L133,51 L137,52 L144,54 L151,56 L155,56 L159,57 L165,57 L171,57 L177,57 L198,54 L206,52 L213,49 L221,45 L237,40 L249,37 L250,35 L252,34 L252,33 L250,31 L248,30 L246,29 L244,29 L243,29 L240,28 L234,27 L231,27 L228,26 L221,25 L217,25 L209,25 L200,25 L190,25 L183,28 L181,29 L180,30 L179,31 L179,32 L181,34 L183,36 L187,38 L189,40 L191,41 L192,41 L194,42 L197,42 L199,42 L202,42 L204,42 L206,42 L208,42 L211,43 L212,43 L214,43 L216,43 L218,44 L220,45 L223,46 L225,47 L229,48 L230,48 L230,47 L230,46 L230,45 L231,45 L232,45 L233,45 L234,45 L236,45 L237,46 L238,46 L237,46 L228,57 L218,64 L205,71 L188,76 L171,81 L154,83 L133,85 L112,85 L91,83 L70,80 L51,78 L34,76 L14,72 L2,70 L1,70 L0,70 L1,70 L3,71 L4,71 L6,71 L7,71 L8,71 L10,71 L13,70 L17,67 L20,66 L22,64 L25,63 L28,62 L31,61 L34,60 L37,59 L43,57 L49,55 L54,53 L57,52 L59,50 L60,50 L62,49 L63,49 L64,48 L66,47 L67,47 L68,46 L69,46 L70,45 L72,45 L75,44 L77,44 L79,43 L81,43 L84,42 L88,41 L91,41 L95,40 L97,40 L99,39 L104,38 L106,37 L108,36 L110,36 L115,35 L120,34 L121,34 L123,33 L126,33 L127,33 L128,34 L130,36 L132,38 L138,45 L140,48 L145,53 L152,60 L155,61 L157,62 L163,65 L166,66 L172,67 L176,67 L181,64 L182,63 L184,61 L187,58 L187,57 L188,56 L189,54 L189,53 L187,52 L185,49 L184,49 L183,48 L182,48 L180,47 L179,46 L178,46 L172,45 L168,45 L164,44 L159,43 L134,38 L122,37 L111,32 L99,28 L73,14 L62,8 L56,3 L55,1 L54,0 M265,63 L265,62 L264,62 L262,62 L261,62 L258,62 L255,62 L252,62 L244,63 L240,63 L235,63 L221,62 L214,60 L205,60 L198,58 L183,55 L177,53 L171,52 L159,48 L153,48 L147,47 L143,45 L139,43 L138,43 L136,42 L133,41 L131,40 L130,40 L129,39 L128,38 L126,38 L125,38 L124,37 L123,37 L122,37 L121,36 L119,35 L117,35 L116,35 L114,34 L113,34 L112,34 L110,34 L108,34 L107,34 L105,34 L103,34 L102,34 L100,34 L98,34 L97,34 L93,34 L92,34 L90,34 L88,34 L87,34 L84,33 L82,33 L80,33 L79,33 L78,32 L77,32 L75,31 L73,31 L72,30 L70,29 L69,29 L68,28 L66,28 L65,27 L64,27 L63,26 L62,25 L61,25 L59,23 L58,23 L56,21 L54,20 L53,20 L51,19 L49,18 L48,17 L47,17 L46,17 L44,16 L42,16 L41,16 L40,16 L38,16 L37,15 L36,15 L34,15 L32,15 L30,14 L29,14 L28,14 L27,14 L26,14 L24,15 L23,16 L22,16 L21,17 L20,17 L19,18 L18,19 L18,20 L17,20 L17,21 L17,22 L17,23 L17,24 L17,25 L17,26 L17,27 L17,28 L17,29 L17,31 L17,32 L18,33 L18,34 L18,35 L18,36 "/>
</svg>
